<svg id="icon_design_-_icon" data-name="icon design - icon" xmlns="http://www.w3.org/2000/svg" xmlns:xlink="http://www.w3.org/1999/xlink" width="37" height="41.4" viewBox="0 0 37 41.4">
  <defs>
    <linearGradient id="linear-gradient" x1="0.5" x2="0.5" y2="1" gradientUnits="objectBoundingBox">
      <stop offset="0" stop-color="#64f4ab"></stop>
      <stop offset="1" stop-color="#327a56"></stop>
    </linearGradient>
  <linearGradient id="linear-gradient" x1="0.5" x2="0.5" y2="1" gradientUnits="objectBoundingBox">
      <stop offset="0" stop-color="#64f4ab"></stop>
      <stop offset="1" stop-color="#327a56"></stop>
    </linearGradient><linearGradient id="linear-gradient" x1="0.5" x2="0.5" y2="1" gradientUnits="objectBoundingBox">
      <stop offset="0" stop-color="#64f4ab"></stop>
      <stop offset="1" stop-color="#327a56"></stop>
    </linearGradient><linearGradient id="linear-gradient" x1="0.5" x2="0.5" y2="1" gradientUnits="objectBoundingBox">
      <stop offset="0" stop-color="#64f4ab"></stop>
      <stop offset="1" stop-color="#327a56"></stop>
    </linearGradient><linearGradient id="linear-gradient" x1="0.5" x2="0.5" y2="1" gradientUnits="objectBoundingBox">
      <stop offset="0" stop-color="#64f4ab"></stop>
      <stop offset="1" stop-color="#327a56"></stop>
    </linearGradient><linearGradient id="linear-gradient" x1="0.5" x2="0.5" y2="1" gradientUnits="objectBoundingBox">
      <stop offset="0" stop-color="#64f4ab"></stop>
      <stop offset="1" stop-color="#327a56"></stop>
    </linearGradient><linearGradient id="linear-gradient" x1="0.5" x2="0.5" y2="1" gradientUnits="objectBoundingBox">
      <stop offset="0" stop-color="#64f4ab"></stop>
      <stop offset="1" stop-color="#327a56"></stop>
    </linearGradient><linearGradient id="linear-gradient" x1="0.5" x2="0.5" y2="1" gradientUnits="objectBoundingBox">
      <stop offset="0" stop-color="#64f4ab"></stop>
      <stop offset="1" stop-color="#327a56"></stop>
    </linearGradient><linearGradient id="linear-gradient" x1="0.5" x2="0.5" y2="1" gradientUnits="objectBoundingBox">
      <stop offset="0" stop-color="#64f4ab"></stop>
      <stop offset="1" stop-color="#327a56"></stop>
    </linearGradient></defs>
  <g id="Group_113" data-name="Group 113" transform="translate(3.265 8.208)" fill="#64F4AB">
    <g id="Group_112" data-name="Group 112" fill="#64F4AB">
      <path id="Path_66" data-name="Path 66" d="M62.978,86.08H58.073a.763.763,0,1,0,0,1.526h4.905a.763.763,0,1,0,0-1.526Z" transform="translate(-57.31 -86.08)" fill="url(&quot;#linear-gradient&quot;)"></path>
    </g>
  </g>
  <g id="Group_115" data-name="Group 115" transform="translate(3.265 14.792)" fill="#64F4AB">
    <g id="Group_114" data-name="Group 114" fill="#64F4AB">
      <path id="Path_67" data-name="Path 67" d="M62.978,155.12H58.073a.763.763,0,0,0,0,1.526h4.905a.763.763,0,0,0,0-1.526Z" transform="translate(-57.31 -155.12)" fill="url(&quot;#linear-gradient&quot;)"></path>
    </g>
  </g>
  <g id="Group_117" data-name="Group 117" transform="translate(3.265 21.398)" fill="#64F4AB">
    <g id="Group_116" data-name="Group 116" fill="#64F4AB">
      <path id="Path_68" data-name="Path 68" d="M62.978,224.4H58.073a.763.763,0,0,0,0,1.526h4.905a.763.763,0,0,0,0-1.526Z" transform="translate(-57.31 -224.4)" fill="url(&quot;#linear-gradient&quot;)"></path>
    </g>
  </g>
  <g id="Group_119" data-name="Group 119" transform="translate(3.265 28.042)" fill="#64F4AB">
    <g id="Group_118" data-name="Group 118" fill="#64F4AB">
      <path id="Path_69" data-name="Path 69" d="M62.978,294.08H58.073a.763.763,0,0,0,0,1.526h4.905a.763.763,0,0,0,0-1.526Z" transform="translate(-57.31 -294.08)" fill="url(&quot;#linear-gradient&quot;)"></path>
    </g>
  </g>
  <g id="Group_121" data-name="Group 121" transform="translate(15.024 8.788)" fill="#64F4AB">
    <g id="Group_120" data-name="Group 120" fill="#64F4AB">
      <path id="Path_70" data-name="Path 70" d="M186.169,94.27l-4.463-2.044a.763.763,0,0,0-.633,1.388h0l4.463,2.044a.763.763,0,1,0,.633-1.388Z" transform="translate(-180.626 -92.157)" fill="url(&quot;#linear-gradient&quot;)"></path>
    </g>
  </g>
  <g id="Group_123" data-name="Group 123" transform="translate(0)" fill="#64F4AB">
    <g id="Group_122" data-name="Group 122" fill="#64F4AB">
      <path id="Path_71" data-name="Path 71" d="M58.817,12.663,56.322,9.734a4.768,4.768,0,0,0-3.173-1.739,4.493,4.493,0,0,0-3.3,1.251l-1.732,1.526.664-1.442A4.168,4.168,0,0,0,48.5,4.8a5.141,5.141,0,0,0-1.976-1.526L43.064,1.64a4.244,4.244,0,0,0-6.057,2.289l-.969,2.113V4.577A4.253,4.253,0,0,0,31.461,0H27.647A4.253,4.253,0,0,0,23.07,4.577V36.823A4.253,4.253,0,0,0,27.647,41.4h3.814a4.1,4.1,0,0,0,4.3-2.845l22.58-19.483a4.5,4.5,0,0,0,1.724-3.051A4.761,4.761,0,0,0,58.817,12.663Zm-24.3,24.159a2.767,2.767,0,0,1-3.051,3.051H27.647A2.767,2.767,0,0,1,24.6,36.823V4.577a2.768,2.768,0,0,1,3.051-3.051h3.814a2.767,2.767,0,0,1,3.051,3.051Zm3.639-13.937-2.113-.946V16.371l4.211,1.922a.763.763,0,1,0,.633-1.388L36.42,14.868a.762.762,0,0,0-.381-.053V9.681L38.4,4.547a2.783,2.783,0,0,1,4.035-1.526l3.486,1.594a3.624,3.624,0,0,1,1.4,1.068,2.708,2.708,0,0,1,.1,2.967L39.875,25.128l-3.814,8.391V23.6l1.457.671a.763.763,0,0,0,.633-1.388Zm19.2-4.974L36.71,35.724l4.066-8.887,1.053,1.205a.763.763,0,1,0,1.19-.955.79.79,0,0,0-.053-.06l-1.526-1.671,2.35-5.126,3.006,3.486A.779.779,0,0,0,47.977,22.7l-3.219-3.73a.763.763,0,0,0-.305-.206l2.151-4.7L50.86,10.4a3.052,3.052,0,0,1,2.189-.885,3.219,3.219,0,0,1,2.1,1.205l2.5,2.906a3.326,3.326,0,0,1,.885,2.289A3.052,3.052,0,0,1,57.352,17.912Z" transform="translate(-23.07 0)" fill="url(&quot;#linear-gradient&quot;)"></path>
    </g>
  </g>
  <g id="Group_125" data-name="Group 125" transform="translate(25.384 14.409)" fill="#64F4AB">
    <g id="Group_124" data-name="Group 124" fill="#64F4AB">
      <path id="Path_72" data-name="Path 72" d="M293.8,155.067l-3.2-3.715a.763.763,0,0,0-1.152,1l3.2,3.715a.763.763,0,0,0,1.152-1Z" transform="translate(-289.271 -151.106)" fill="url(&quot;#linear-gradient&quot;)"></path>
    </g>
  </g>
  <g id="Group_127" data-name="Group 127" transform="translate(3.829 32.779)" fill="#64F4AB">
    <g id="Group_126" data-name="Group 126" fill="#64F4AB">
      <path id="Path_73" data-name="Path 73" d="M65.885,343.76a2.655,2.655,0,1,0,2.655,2.655A2.655,2.655,0,0,0,65.885,343.76Zm0,3.784v.031a1.114,1.114,0,1,0,0-.031Z" transform="translate(-63.23 -343.76)" fill="url(&quot;#linear-gradient&quot;)"></path>
    </g>
  </g>
</svg>